<svg width="466" height="379" viewBox="0 0 466 379" fill="none" xmlns="http://www.w3.org/2000/svg">
<rect x="352.477" y="277.529" width="4.16293" height="103.981" rx="2.08146" transform="rotate(50 352.477 277.529)" fill="#DBFBFF"/>
<path d="M160.099 311.873H192.362V330.606L144.488 369.807L163.048 337.197L160.099 311.873Z" fill="#746969"/>
<path d="M264.173 300.945L288.803 292.619L297.476 333.034L292.099 373.796L283.947 335.463L264.173 300.945Z" fill="#746969"/>
<path d="M161.314 284.814L300.425 234.165L309.791 192.535L322.107 213.697L343.615 219.248L384.898 240.756L367.552 250.296H327.484L285.334 305.802L270.244 377.439L254.806 316.209L176.751 326.443L104.767 377.439L136.683 326.443V312.046L125.582 316.209L96.6147 290.191L125.582 302.506L140.846 297.129L161.314 284.814Z" fill="#926D6D"/>
<path d="M379.52 237.46L385.244 240.756L381.775 243.184L375.184 239.889L379.52 237.46Z" fill="#746464"/>
<path d="M225.665 300.772L254.806 287.589L262.611 300.772L254.806 316.383L188.893 325.055L225.665 300.772Z" fill="#836363"/>
<path d="M310.312 194.617L316.556 205.371L319.505 211.789L317.076 214.564L310.832 218.033L309.271 207.279L310.312 194.617Z" fill="#7B5E5E"/>
<path d="M357.794 17.3412C416.649 -16.6845 405.532 8.29166 456.143 17.3412C506.755 26.3906 330.259 379 330.259 379H0C0 379 298.939 51.3669 357.794 17.3412Z" fill="url(#paint0_linear_319_10)" fill-opacity="0.68"/>
<rect x="340.682" y="84.9932" width="4.16293" height="49.6082" rx="2.08146" transform="rotate(50 340.682 84.9932)" fill="#DBFBFF"/>
<rect x="374.551" y="144.992" width="4.16293" height="90.6514" rx="2.08146" transform="rotate(50 374.551 144.992)" fill="#DBFBFF"/>
<rect x="423.247" y="153.681" width="4.16293" height="87.5929" rx="2.08146" transform="rotate(50 423.247 153.681)" fill="#DBFBFF"/>
<rect x="223.079" y="200.514" width="4.16293" height="86.1859" rx="2.08146" transform="rotate(50 223.079 200.514)" fill="#DBFBFF"/>
<rect x="279.972" y="274.406" width="4.16293" height="49.6082" rx="2.08146" transform="rotate(50 279.972 274.406)" fill="#DBFBFF"/>
<defs>
<linearGradient id="paint0_linear_319_10" x1="349.329" y1="17.3415" x2="373.85" y2="231.596" gradientUnits="userSpaceOnUse">
<stop stop-color="#9EEFFA"/>
<stop offset="1" stop-color="#B6F6FF" stop-opacity="0.07"/>
</linearGradient>
</defs>
</svg>
